<?xml version="1.0" encoding="utf-8"?>
<svg version="1.1" xmlns:xlink="http://www.w3.org/1999/xlink" width="18px" height="18px" viewBox="406 325  18 18" xmlns="http://www.w3.org/2000/svg">
  <path d="M 415 325  C 420.04 325  424 328.96  424 334  C 424 339.04  420.04 343  415 343  C 409.96 343  406 339.04  406 334  C 406 328.96  409.96 325  415 325  Z " fill-rule="nonzero" fill="#ffffff" stroke="none" />
  <path d="M 415 325.5  C 419.76 325.5  423.5 329.24  423.5 334  C 423.5 338.76  419.76 342.5  415 342.5  C 410.24 342.5  406.5 338.76  406.5 334  C 406.5 329.24  410.24 325.5  415 325.5  Z " stroke-width="1" stroke="#797979" fill="none" />
  <path d="M 415 338.5  C 412.48 338.5  410.5 336.52  410.5 334  C 410.5 331.48  412.48 329.5  415 329.5  C 417.52 329.5  419.5 331.48  419.5 334  C 419.5 336.52  417.52 338.5  415 338.5  " fill-rule="nonzero" fill="#797979" stroke="none" />
</svg>