<?xml version="1.0" encoding="utf-8"?>
<svg version="1.1" xmlns:xlink="http://www.w3.org/1999/xlink" width="18px" height="18px" viewBox="406 568  18 18" xmlns="http://www.w3.org/2000/svg">
  <path d="M 415 568  C 420.04 568  424 571.96  424 577  C 424 582.04  420.04 586  415 586  C 409.96 586  406 582.04  406 577  C 406 571.96  409.96 568  415 568  Z " fill-rule="nonzero" fill="#f0f0f0" stroke="none" />
  <path d="M 415 568.5  C 419.76 568.5  423.5 572.24  423.5 577  C 423.5 581.76  419.76 585.5  415 585.5  C 410.24 585.5  406.5 581.76  406.5 577  C 406.5 572.24  410.24 568.5  415 568.5  Z " stroke-width="1" stroke="#797979" fill="none" />
  <path d="M 415 581.5  C 412.48 581.5  410.5 579.52  410.5 577  C 410.5 574.48  412.48 572.5  415 572.5  C 417.52 572.5  419.5 574.48  419.5 577  C 419.5 579.52  417.52 581.5  415 581.5  " fill-rule="nonzero" fill="#797979" stroke="none" />
</svg>